<svg width="28" height="28" viewBox="0 0 28 28" fill="none" xmlns="http://www.w3.org/2000/svg">
<path d="M19.5526 7.13056C19.5526 7.82389 19.0904 8.28611 18.3971 8.28611H9.15263C8.45929 8.28611 7.99707 7.82389 7.99707 7.13056V1.93058C7.99707 1.23725 8.45929 0.775024 9.15263 0.775024H18.3971C19.0904 0.775024 19.5526 1.23725 19.5526 1.93058V7.13056Z" stroke="#6F7882" stroke-width="1.55" stroke-miterlimit="10" stroke-linecap="round" stroke-linejoin="round"/>
<path d="M11.8101 4.2417V4.81948" stroke="#6F7882" stroke-width="1.55" stroke-miterlimit="10" stroke-linecap="round" stroke-linejoin="round"/>
<path d="M15.855 4.2417V4.81948" stroke="#6F7882" stroke-width="1.55" stroke-miterlimit="10" stroke-linecap="round" stroke-linejoin="round"/>
<path d="M19.1625 13.5441C16.2346 16.4329 11.3156 16.4329 8.3877 13.5441" stroke="#6F7882" stroke-width="1.55" stroke-miterlimit="10" stroke-linecap="round" stroke-linejoin="round"/>
<path d="M22.9104 17.2419C17.8744 22.2108 9.67617 22.2108 4.64014 17.2419" stroke="#6F7882" stroke-width="1.55" stroke-miterlimit="10" stroke-linecap="round" stroke-linejoin="round"/>
<path d="M26.7749 21.6328C19.5136 28.5661 8.03616 28.4505 0.774902 21.5172" stroke="#6F7882" stroke-width="1.55" stroke-miterlimit="10" stroke-linecap="round" stroke-linejoin="round"/>
</svg>
