<svg width="20" height="24" viewBox="0 0 20 24" fill="none" xmlns="http://www.w3.org/2000/svg">
<g clip-path="url(#clip0_74_21711)">
<path d="M1.34153 3.55188C1.34153 3.55188 0 3.79008 0 4.89639V12.9582C0 17.267 6.47248 22.0628 8.66916 23.492C9.10743 23.7778 9.67397 23.7778 10.1122 23.492C12.3143 22.0681 18.7814 17.2723 18.7814 12.9582V4.89639C18.7814 3.79008 17.4399 3.55188 17.4399 3.55188L10.1871 1.31808C9.66863 1.15927 9.11277 1.15927 8.59434 1.31808L1.34153 3.55188Z" fill="#E7EFFD"/>
<path d="M2.97186 2.60961C2.97186 2.60961 3.01461 2.59902 3.04134 2.59373L10.2941 0.359929C10.7003 0.232888 11.1386 0.232888 11.5448 0.359929L18.7976 2.59373C18.7976 2.59373 18.8404 2.60432 18.8671 2.60961C18.8671 2.60961 18.8778 2.60961 18.8938 2.6149C18.9205 2.6202 18.958 2.63078 19.0061 2.64666C19.1023 2.67842 19.2252 2.72606 19.3481 2.79488C19.5833 2.93251 19.7383 3.11248 19.7383 3.38774V11.4495C19.7383 12.3865 19.3855 13.3922 18.7709 14.4244C18.1616 15.4513 17.3171 16.4624 16.3925 17.3993C14.5379 19.2784 12.4053 20.8082 11.331 21.5016C11.0852 21.6604 10.7698 21.6604 10.524 21.5016C9.44433 20.8029 7.31713 19.2731 5.4625 17.394C4.53786 16.4571 3.6934 15.446 3.0841 14.4191C2.4748 13.3922 2.1167 12.3865 2.1167 11.4442V3.38774C2.1167 3.11248 2.26635 2.93251 2.50686 2.79488C2.62445 2.72606 2.74738 2.67842 2.84893 2.64666C2.89703 2.63078 2.93444 2.6202 2.96117 2.6149C2.97186 2.6149 2.98255 2.6149 2.98789 2.60961H2.97186Z" stroke="#0046C7" stroke-width="0.5"/>
<path d="M6.26391 8.30005H5.72409L6.26391 9.55987L5.78823 10.6503L4.77273 8.30005H4.23291L5.62254 11.5396H5.95926L6.53649 10.2057L7.11372 11.5396H7.45044L8.84007 8.30005H8.30025L7.28475 10.6715L6.26925 8.30005H6.26391Z" fill="#0046C7"/>
<path d="M11.4055 8.30005L10.4755 9.93041L9.54549 8.30005H8.96826L10.2403 10.5074V11.5237H10.732V10.5074L11.9827 8.30005H11.4055Z" fill="#0046C7"/>
<path d="M15.0132 11.5396H17.584V10.9838H15.0132V11.5396Z" fill="#0046C7"/>
<path d="M15.0132 8.85585H17.584V8.30005H15.0132V8.85585Z" fill="#0046C7"/>
<path d="M15.0132 10.1898H17.584V9.63403H15.0132V10.1898Z" fill="#0046C7"/>
<path d="M12.1323 8.30005V8.83997H13.8266L11.9292 11.5449H14.6871V11.0103H12.9447L14.8581 8.30534H12.1323V8.30005Z" fill="#0046C7"/>
</g>
<defs>
<clipPath id="clip0_74_21711">
<rect width="20" height="23.7037" fill="white"/>
</clipPath>
</defs>
</svg>
