<svg width="26" height="26" viewBox="0 0 26 26" fill="none" xmlns="http://www.w3.org/2000/svg">
<path d="M16.478 6.47826L12.9997 3L9.52148 6.47826" stroke="#6F7882" stroke-width="1.5" stroke-linecap="round" stroke-linejoin="round"/>
<path d="M8.07204 10.174C8.07204 10.5776 7.91171 10.9646 7.62633 11.25C7.34095 11.5354 6.95389 11.6957 6.5503 11.6957H5.53639C5.1328 11.6957 4.74574 11.5354 4.46036 11.25C4.17497 10.9646 4.01465 10.5776 4.01465 10.174C4.01465 9.77037 4.17497 9.38331 4.46036 9.09793C4.74574 8.81255 5.1328 8.65222 5.53639 8.65222H6.5503C6.95389 8.65222 7.34095 8.81255 7.62633 9.09793C7.91171 9.38331 8.07204 9.77037 8.07204 10.174Z" stroke="#6F7882" stroke-width="1.5" stroke-linecap="round" stroke-linejoin="round"/>
<path d="M15.0286 10.174C15.0286 10.5776 14.8683 10.9646 14.5829 11.25C14.2975 11.5354 13.9104 11.6957 13.5068 11.6957H12.4929C12.0893 11.6957 11.7023 11.5354 11.4169 11.25C11.1315 10.9646 10.9712 10.5776 10.9712 10.174C10.9712 9.77037 11.1315 9.38331 11.4169 9.09793C11.7023 8.81255 12.0893 8.65222 12.4929 8.65222H13.5068C13.9104 8.65222 14.2975 8.81255 14.5829 9.09793C14.8683 9.38331 15.0286 9.77037 15.0286 10.174Z" stroke="#6F7882" stroke-width="1.5" stroke-linecap="round" stroke-linejoin="round"/>
<path d="M21.9851 10.174C21.9851 10.5776 21.8248 10.9646 21.5394 11.25C21.254 11.5354 20.867 11.6957 20.4634 11.6957H19.4495C19.0459 11.6957 18.6588 11.5354 18.3734 11.25C18.0881 10.9646 17.9277 10.5776 17.9277 10.174C17.9277 9.77037 18.0881 9.38331 18.3734 9.09793C18.6588 8.81255 19.0459 8.65222 19.4495 8.65222H20.4634C20.867 8.65222 21.254 8.81255 21.5394 9.09793C21.8248 9.38331 21.9851 9.77037 21.9851 10.174Z" stroke="#6F7882" stroke-width="1.5" stroke-linecap="round" stroke-linejoin="round"/>
<path d="M8.07204 15.8261C8.07204 16.2297 7.91171 16.6167 7.62633 16.9021C7.34095 17.1875 6.95389 17.3478 6.5503 17.3478H5.53639C5.1328 17.3478 4.74574 17.1875 4.46036 16.9021C4.17497 16.6167 4.01465 16.2297 4.01465 15.8261C4.01465 15.4225 4.17497 15.0354 4.46036 14.75C4.74574 14.4646 5.1328 14.3043 5.53639 14.3043H6.5503C6.95389 14.3043 7.34095 14.4646 7.62633 14.75C7.91171 15.0354 8.07204 15.4225 8.07204 15.8261Z" stroke="#6F7882" stroke-width="1.5" stroke-linecap="round" stroke-linejoin="round"/>
<path d="M15.0286 15.8261C15.0286 16.2297 14.8683 16.6167 14.5829 16.9021C14.2975 17.1875 13.9104 17.3478 13.5068 17.3478H12.4929C12.0893 17.3478 11.7023 17.1875 11.4169 16.9021C11.1315 16.6167 10.9712 16.2297 10.9712 15.8261C10.9712 15.4225 11.1315 15.0354 11.4169 14.75C11.7023 14.4646 12.0893 14.3043 12.4929 14.3043H13.5068C13.9104 14.3043 14.2975 14.4646 14.5829 14.75C14.8683 15.0354 15.0286 15.4225 15.0286 15.8261Z" stroke="#6F7882" stroke-width="1.5" stroke-linecap="round" stroke-linejoin="round"/>
<path d="M21.9851 15.8261C21.9851 16.2297 21.8248 16.6167 21.5394 16.9021C21.254 17.1875 20.867 17.3478 20.4634 17.3478H19.4495C19.0459 17.3478 18.6588 17.1875 18.3734 16.9021C18.0881 16.6167 17.9277 16.2297 17.9277 15.8261C17.9277 15.4225 18.0881 15.0354 18.3734 14.75C18.6588 14.4646 19.0459 14.3043 19.4495 14.3043H20.4634C20.867 14.3043 21.254 14.4646 21.5394 14.75C21.8248 15.0354 21.9851 15.4225 21.9851 15.8261Z" stroke="#6F7882" stroke-width="1.5" stroke-linecap="round" stroke-linejoin="round"/>
<path d="M8.07204 21.4783C8.07204 21.8819 7.91171 22.2689 7.62633 22.5543C7.34095 22.8397 6.95389 23 6.5503 23H5.53639C5.1328 23 4.74574 22.8397 4.46036 22.5543C4.17497 22.2689 4.01465 21.8819 4.01465 21.4783C4.01465 21.0747 4.17497 20.6876 4.46036 20.4023C4.74574 20.1169 5.1328 19.9565 5.53639 19.9565H6.5503C6.95389 19.9565 7.34095 20.1169 7.62633 20.4023C7.91171 20.6876 8.07204 21.0747 8.07204 21.4783Z" stroke="#6F7882" stroke-width="1.5" stroke-linecap="round" stroke-linejoin="round"/>
<path d="M15.0286 21.4783C15.0286 21.8819 14.8683 22.2689 14.5829 22.5543C14.2975 22.8397 13.9104 23 13.5068 23H12.4929C12.0893 23 11.7023 22.8397 11.4169 22.5543C11.1315 22.2689 10.9712 21.8819 10.9712 21.4783C10.9712 21.0747 11.1315 20.6876 11.4169 20.4023C11.7023 20.1169 12.0893 19.9565 12.4929 19.9565H13.5068C13.9104 19.9565 14.2975 20.1169 14.5829 20.4023C14.8683 20.6876 15.0286 21.0747 15.0286 21.4783Z" stroke="#6F7882" stroke-width="1.5" stroke-linecap="round" stroke-linejoin="round"/>
<path d="M21.9851 21.4783C21.9851 21.8819 21.8248 22.2689 21.5394 22.5543C21.254 22.8397 20.867 23 20.4634 23H19.4495C19.0459 23 18.6588 22.8397 18.3734 22.5543C18.0881 22.2689 17.9277 21.8819 17.9277 21.4783C17.9277 21.0747 18.0881 20.6876 18.3734 20.4023C18.6588 20.1169 19.0459 19.9565 19.4495 19.9565H20.4634C20.867 19.9565 21.254 20.1169 21.5394 20.4023C21.8248 20.6876 21.9851 21.0747 21.9851 21.4783Z" stroke="#6F7882" stroke-width="1.5" stroke-linecap="round" stroke-linejoin="round"/>
</svg>
