<svg width="19" height="24" viewBox="0 0 19 24" fill="none" xmlns="http://www.w3.org/2000/svg">
<path d="M1.39044 2.93704C1.41312 2.93283 1.43554 2.92724 1.45756 2.9203L8.83654 0.595338C9.23999 0.468221 9.67205 0.468221 10.0755 0.595338L17.4544 2.9203C17.4765 2.92724 17.4989 2.93283 17.5216 2.93704C17.5225 2.93721 17.5234 2.93738 17.5243 2.93755L17.5239 2.93748L17.5232 2.93734L17.5221 2.93715L17.525 2.93773C17.5296 2.93869 17.5385 2.94062 17.5512 2.94365C17.5766 2.94974 17.616 2.96008 17.6646 2.97565C17.7639 3.00746 17.8906 3.05765 18.0124 3.13089C18.2552 3.27702 18.412 3.46586 18.412 3.75864V12.1239C18.412 13.101 18.0517 14.1474 17.4306 15.2156C16.8116 16.2805 15.9546 17.3309 15.0138 18.305C13.1316 20.2539 10.9682 21.8422 9.874 22.5672L9.87199 22.5686C9.6192 22.7376 9.29277 22.7376 9.04005 22.5686L9.03797 22.5672C7.94376 21.8422 5.78037 20.2539 3.89816 18.305C2.95742 17.3309 2.10033 16.2805 1.48134 15.2156C0.860341 14.1474 0.5 13.101 0.5 12.1239V3.75864C0.5 3.46586 0.6568 3.27702 0.899614 3.13089C1.02132 3.05765 1.14811 3.00746 1.24742 2.97565C1.29603 2.96008 1.33544 2.94974 1.36083 2.94365C1.37346 2.94062 1.38241 2.93869 1.38706 2.93773L1.39044 2.93704ZM1.38806 2.93748L1.388 2.93748C1.38804 2.93748 1.38807 2.93748 1.3881 2.93747L1.38806 2.93748Z" stroke="#6F7882" stroke-linecap="round" stroke-linejoin="round"/>
</svg>
